<svg width="77" height="34" viewBox="0 0 77 34" fill="none" xmlns="http://www.w3.org/2000/svg">
<path d="M3.51938 19V5H9.49938C11.446 5 12.9594 5.45333 14.0394 6.36C15.1194 7.25333 15.6594 8.49333 15.6594 10.08C15.6594 11.12 15.4127 12.02 14.9194 12.78C14.426 13.5267 13.726 14.1 12.8194 14.5C11.9127 14.9 10.8327 15.1 9.57938 15.1H5.31938L6.75938 13.68V19H3.51938ZM12.4194 19L8.91938 13.92H12.3794L15.9194 19H12.4194ZM6.75938 14.04L5.31938 12.52H9.39938C10.3994 12.52 11.146 12.3067 11.6394 11.88C12.1327 11.44 12.3794 10.84 12.3794 10.08C12.3794 9.30667 12.1327 8.70667 11.6394 8.28C11.146 7.85333 10.3994 7.64 9.39938 7.64H5.31938L6.75938 6.1V14.04ZM25.0264 19.24C23.9197 19.24 22.8931 19.06 21.9464 18.7C21.0131 18.34 20.1997 17.8333 19.5064 17.18C18.8264 16.5267 18.2931 15.76 17.9064 14.88C17.5331 14 17.3464 13.04 17.3464 12C17.3464 10.96 17.5331 10 17.9064 9.12C18.2931 8.24 18.8331 7.47333 19.5264 6.82C20.2197 6.16667 21.0331 5.66 21.9664 5.3C22.8997 4.94 23.9131 4.76 25.0064 4.76C26.1131 4.76 27.1264 4.94 28.0464 5.3C28.9797 5.66 29.7864 6.16667 30.4664 6.82C31.1597 7.47333 31.6997 8.24 32.0864 9.12C32.4731 9.98667 32.6664 10.9467 32.6664 12C32.6664 13.04 32.4731 14.0067 32.0864 14.9C31.6997 15.78 31.1597 16.5467 30.4664 17.2C29.7864 17.84 28.9797 18.34 28.0464 18.7C27.1264 19.06 26.1197 19.24 25.0264 19.24ZM25.0064 16.48C25.6331 16.48 26.2064 16.3733 26.7264 16.16C27.2597 15.9467 27.7264 15.64 28.1264 15.24C28.5264 14.84 28.8331 14.3667 29.0464 13.82C29.2731 13.2733 29.3864 12.6667 29.3864 12C29.3864 11.3333 29.2731 10.7267 29.0464 10.18C28.8331 9.63333 28.5264 9.16 28.1264 8.76C27.7397 8.36 27.2797 8.05333 26.7464 7.84C26.2131 7.62667 25.6331 7.52 25.0064 7.52C24.3797 7.52 23.7997 7.62667 23.2664 7.84C22.7464 8.05333 22.2864 8.36 21.8864 8.76C21.4864 9.16 21.1731 9.63333 20.9464 10.18C20.7331 10.7267 20.6264 11.3333 20.6264 12C20.6264 12.6533 20.7331 13.26 20.9464 13.82C21.1731 14.3667 21.4797 14.84 21.8664 15.24C22.2664 15.64 22.7331 15.9467 23.2664 16.16C23.7997 16.3733 24.3797 16.48 25.0064 16.48ZM41.9014 19.24C40.7947 19.24 39.7681 19.06 38.8214 18.7C37.8881 18.34 37.0747 17.8333 36.3814 17.18C35.7014 16.5267 35.1681 15.76 34.7814 14.88C34.4081 14 34.2214 13.04 34.2214 12C34.2214 10.96 34.4081 10 34.7814 9.12C35.1681 8.24 35.7081 7.47333 36.4014 6.82C37.0947 6.16667 37.9081 5.66 38.8414 5.3C39.7747 4.94 40.7881 4.76 41.8814 4.76C42.9881 4.76 44.0014 4.94 44.9214 5.3C45.8547 5.66 46.6614 6.16667 47.3414 6.82C48.0347 7.47333 48.5747 8.24 48.9614 9.12C49.3481 9.98667 49.5414 10.9467 49.5414 12C49.5414 13.04 49.3481 14.0067 48.9614 14.9C48.5747 15.78 48.0347 16.5467 47.3414 17.2C46.6614 17.84 45.8547 18.34 44.9214 18.7C44.0014 19.06 42.9947 19.24 41.9014 19.24ZM41.8814 16.48C42.5081 16.48 43.0814 16.3733 43.6014 16.16C44.1347 15.9467 44.6014 15.64 45.0014 15.24C45.4014 14.84 45.7081 14.3667 45.9214 13.82C46.1481 13.2733 46.2614 12.6667 46.2614 12C46.2614 11.3333 46.1481 10.7267 45.9214 10.18C45.7081 9.63333 45.4014 9.16 45.0014 8.76C44.6147 8.36 44.1547 8.05333 43.6214 7.84C43.0881 7.62667 42.5081 7.52 41.8814 7.52C41.2547 7.52 40.6747 7.62667 40.1414 7.84C39.6214 8.05333 39.1614 8.36 38.7614 8.76C38.3614 9.16 38.0481 9.63333 37.8214 10.18C37.6081 10.7267 37.5014 11.3333 37.5014 12C37.5014 12.6533 37.6081 13.26 37.8214 13.82C38.0481 14.3667 38.3547 14.84 38.7414 15.24C39.1414 15.64 39.6081 15.9467 40.1414 16.16C40.6747 16.3733 41.2547 16.48 41.8814 16.48ZM54.6811 19V7.64H50.2011V5H62.4011V7.64H57.9211V19H54.6811ZM68.6467 19.24C67.5267 19.24 66.4534 19.0933 65.4267 18.8C64.4001 18.4933 63.5734 18.1 62.9467 17.62L64.0467 15.18C64.6467 15.6067 65.3534 15.96 66.1667 16.24C66.9934 16.5067 67.8267 16.64 68.6667 16.64C69.3067 16.64 69.8201 16.58 70.2067 16.46C70.6067 16.3267 70.9001 16.1467 71.0867 15.92C71.2734 15.6933 71.3667 15.4333 71.3667 15.14C71.3667 14.7667 71.2201 14.4733 70.9267 14.26C70.6334 14.0333 70.2467 13.8533 69.7667 13.72C69.2867 13.5733 68.7534 13.44 68.1667 13.32C67.5934 13.1867 67.0134 13.0267 66.4267 12.84C65.8534 12.6533 65.3267 12.4133 64.8467 12.12C64.3667 11.8267 63.9734 11.44 63.6667 10.96C63.3734 10.48 63.2267 9.86667 63.2267 9.12C63.2267 8.32 63.4401 7.59333 63.8667 6.94C64.3067 6.27333 64.9601 5.74667 65.8267 5.36C66.7067 4.96 67.8067 4.76 69.1267 4.76C70.0067 4.76 70.8734 4.86667 71.7267 5.08C72.5801 5.28 73.3334 5.58667 73.9867 6L72.9867 8.46C72.3334 8.08667 71.6801 7.81333 71.0267 7.64C70.3734 7.45333 69.7334 7.36 69.1067 7.36C68.4801 7.36 67.9667 7.43333 67.5667 7.58C67.1667 7.72667 66.8801 7.92 66.7067 8.16C66.5334 8.38667 66.4467 8.65333 66.4467 8.96C66.4467 9.32 66.5934 9.61333 66.8867 9.84C67.1801 10.0533 67.5667 10.2267 68.0467 10.36C68.5267 10.4933 69.0534 10.6267 69.6267 10.76C70.2134 10.8933 70.7934 11.0467 71.3667 11.22C71.9534 11.3933 72.4867 11.6267 72.9667 11.92C73.4467 12.2133 73.8334 12.6 74.1267 13.08C74.4334 13.56 74.5867 14.1667 74.5867 14.9C74.5867 15.6867 74.3667 16.4067 73.9267 17.06C73.4867 17.7133 72.8267 18.24 71.9467 18.64C71.0801 19.04 69.9801 19.24 68.6467 19.24ZM15.2289 33V27.78H15.7089V29.22L15.6389 29.06C15.7923 28.6533 16.0489 28.3333 16.4089 28.1C16.7689 27.86 17.2023 27.74 17.7089 27.74C18.2289 27.74 18.6656 27.8733 19.0189 28.14C19.3789 28.4 19.6056 28.79 19.6989 29.31L19.5289 29.24C19.6689 28.7933 19.9323 28.4333 20.3189 28.16C20.7056 27.88 21.1756 27.74 21.7289 27.74C22.1489 27.74 22.5123 27.8233 22.8189 27.99C23.1323 28.15 23.3756 28.3967 23.5489 28.73C23.7223 29.0567 23.8089 29.4633 23.8089 29.95V33H23.3089V29.99C23.3089 29.4033 23.1656 28.9567 22.8789 28.65C22.5923 28.3433 22.1923 28.19 21.6789 28.19C21.2856 28.19 20.9456 28.2733 20.6589 28.44C20.3723 28.6067 20.1523 28.84 19.9989 29.14C19.8456 29.44 19.7689 29.8 19.7689 30.22V33H19.2689V29.99C19.2689 29.4033 19.1256 28.9567 18.8389 28.65C18.5523 28.3433 18.1523 28.19 17.6389 28.19C17.2456 28.19 16.9056 28.2733 16.6189 28.44C16.3323 28.6067 16.1123 28.84 15.9589 29.14C15.8056 29.44 15.7289 29.8 15.7289 30.22V33H15.2289ZM27.9935 33.04C27.4668 33.04 27.0001 32.9267 26.5935 32.7C26.1935 32.4733 25.8768 32.16 25.6435 31.76C25.4168 31.36 25.3035 30.9033 25.3035 30.39C25.3035 29.87 25.4101 29.4133 25.6235 29.02C25.8435 28.62 26.1435 28.3067 26.5235 28.08C26.9035 27.8533 27.3301 27.74 27.8035 27.74C28.2768 27.74 28.7001 27.85 29.0735 28.07C29.4535 28.29 29.7501 28.6 29.9635 29C30.1835 29.3933 30.2935 29.85 30.2935 30.37C30.2935 30.39 30.2901 30.4133 30.2835 30.44C30.2835 30.46 30.2835 30.4833 30.2835 30.51H25.6735V30.12H30.0135L29.8135 30.31C29.8201 29.9033 29.7335 29.54 29.5535 29.22C29.3801 28.8933 29.1435 28.64 28.8435 28.46C28.5435 28.2733 28.1968 28.18 27.8035 28.18C27.4168 28.18 27.0701 28.2733 26.7635 28.46C26.4635 28.64 26.2268 28.8933 26.0535 29.22C25.8801 29.54 25.7935 29.9067 25.7935 30.32V30.41C25.7935 30.8367 25.8868 31.2167 26.0735 31.55C26.2668 31.8767 26.5301 32.1333 26.8635 32.32C27.1968 32.5 27.5768 32.59 28.0035 32.59C28.3368 32.59 28.6468 32.53 28.9335 32.41C29.2268 32.29 29.4735 32.1067 29.6735 31.86L29.9635 32.19C29.7368 32.47 29.4501 32.6833 29.1035 32.83C28.7635 32.97 28.3935 33.04 27.9935 33.04ZM31.8403 33V27.78H32.3203V29.23L32.2503 29.07C32.4103 28.6567 32.6736 28.3333 33.0403 28.1C33.4069 27.86 33.8569 27.74 34.3903 27.74C34.8169 27.74 35.1869 27.8233 35.5003 27.99C35.8203 28.15 36.0669 28.3967 36.2403 28.73C36.4203 29.0567 36.5103 29.4633 36.5103 29.95V33H36.0103V29.99C36.0103 29.4033 35.8603 28.9567 35.5603 28.65C35.2669 28.3433 34.8536 28.19 34.3203 28.19C33.9136 28.19 33.5603 28.2733 33.2603 28.44C32.9603 28.6067 32.7303 28.84 32.5703 29.14C32.4169 29.44 32.3403 29.8 32.3403 30.22V33H31.8403ZM38.0009 27.78L38.3909 26.09L38.4409 26.38C38.3142 26.38 38.2076 26.34 38.1209 26.26C38.0409 26.18 38.0009 26.08 38.0009 25.96C38.0009 25.84 38.0409 25.74 38.1209 25.66C38.2076 25.58 38.3076 25.54 38.4209 25.54C38.5476 25.54 38.6476 25.5833 38.7209 25.67C38.8009 25.75 38.8409 25.8467 38.8409 25.96C38.8409 26.0067 38.8376 26.0533 38.8309 26.1C38.8242 26.1467 38.8142 26.1933 38.8009 26.24C38.7876 26.2867 38.7709 26.3467 38.7509 26.42L38.3609 27.78H38.0009ZM41.6466 33.04C41.2133 33.04 40.8066 32.9767 40.4266 32.85C40.0533 32.7233 39.7633 32.5633 39.5566 32.37L39.7866 31.97C39.9866 32.1433 40.2533 32.2933 40.5866 32.42C40.9199 32.54 41.2799 32.6 41.6666 32.6C42.2133 32.6 42.6066 32.51 42.8466 32.33C43.0866 32.15 43.2066 31.9133 43.2066 31.62C43.2066 31.4067 43.1433 31.24 43.0166 31.12C42.8966 30.9933 42.7333 30.8967 42.5266 30.83C42.3199 30.7633 42.0933 30.71 41.8466 30.67C41.5999 30.6233 41.3533 30.5733 41.1066 30.52C40.8599 30.4667 40.6333 30.39 40.4266 30.29C40.2199 30.19 40.0533 30.0533 39.9266 29.88C39.8066 29.7 39.7466 29.4633 39.7466 29.17C39.7466 28.9033 39.8199 28.6633 39.9666 28.45C40.1133 28.2367 40.3333 28.0667 40.6266 27.94C40.9199 27.8067 41.2866 27.74 41.7266 27.74C42.0533 27.74 42.3799 27.7867 42.7066 27.88C43.0399 27.9733 43.3099 28.0967 43.5166 28.25L43.2866 28.65C43.0666 28.4833 42.8199 28.3633 42.5466 28.29C42.2733 28.2167 41.9966 28.18 41.7166 28.18C41.2099 28.18 40.8366 28.2733 40.5966 28.46C40.3633 28.6467 40.2466 28.88 40.2466 29.16C40.2466 29.38 40.3066 29.5567 40.4266 29.69C40.5533 29.8167 40.7199 29.9167 40.9266 29.99C41.1333 30.0567 41.3599 30.1133 41.6066 30.16C41.8533 30.2 42.0999 30.2467 42.3466 30.3C42.5933 30.3533 42.8199 30.43 43.0266 30.53C43.2333 30.6233 43.3966 30.7567 43.5166 30.93C43.6433 31.0967 43.7066 31.3233 43.7066 31.61C43.7066 31.8967 43.6266 32.1467 43.4666 32.36C43.3133 32.5733 43.0833 32.74 42.7766 32.86C42.4699 32.98 42.0933 33.04 41.6466 33.04ZM49.7404 33.04C49.2337 33.04 48.7804 32.9267 48.3804 32.7C47.987 32.4733 47.6737 32.16 47.4404 31.76C47.2137 31.36 47.1004 30.9033 47.1004 30.39C47.1004 29.87 47.2137 29.41 47.4404 29.01C47.6737 28.61 47.987 28.3 48.3804 28.08C48.7804 27.8533 49.2337 27.74 49.7404 27.74C50.1604 27.74 50.5404 27.82 50.8804 27.98C51.227 28.14 51.507 28.38 51.7204 28.7L51.3504 28.97C51.1637 28.7033 50.9304 28.5067 50.6504 28.38C50.3704 28.2533 50.067 28.19 49.7404 28.19C49.3337 28.19 48.967 28.2833 48.6404 28.47C48.3204 28.65 48.067 28.9067 47.8804 29.24C47.7004 29.5667 47.6104 29.95 47.6104 30.39C47.6104 30.83 47.7004 31.2167 47.8804 31.55C48.067 31.8767 48.3204 32.1333 48.6404 32.32C48.967 32.5 49.3337 32.59 49.7404 32.59C50.067 32.59 50.3704 32.5267 50.6504 32.4C50.9304 32.2733 51.1637 32.0767 51.3504 31.81L51.7204 32.08C51.507 32.4 51.227 32.64 50.8804 32.8C50.5404 32.96 50.1604 33.04 49.7404 33.04ZM55.3372 33.04C54.8906 33.04 54.5039 32.96 54.1772 32.8C53.8506 32.6333 53.5972 32.3867 53.4172 32.06C53.2439 31.7267 53.1572 31.3167 53.1572 30.83V27.78H53.6572V30.79C53.6572 31.3767 53.8072 31.8233 54.1072 32.13C54.4072 32.4367 54.8306 32.59 55.3772 32.59C55.7706 32.59 56.1106 32.5067 56.3972 32.34C56.6839 32.1733 56.9039 31.94 57.0572 31.64C57.2106 31.3333 57.2872 30.9733 57.2872 30.56V27.78H57.7872V33H57.3072V31.55L57.3772 31.72C57.2239 32.1267 56.9672 32.45 56.6072 32.69C56.2539 32.9233 55.8306 33.04 55.3372 33.04ZM61.4267 33.04C60.9667 33.04 60.6133 32.9133 60.3667 32.66C60.1267 32.4067 60.0067 32.06 60.0067 31.62V26.64H60.5067V31.57C60.5067 31.9033 60.59 32.16 60.7567 32.34C60.9233 32.52 61.1633 32.61 61.4767 32.61C61.8033 32.61 62.0733 32.5133 62.2867 32.32L62.4967 32.67C62.3633 32.7967 62.2 32.89 62.0067 32.95C61.82 33.01 61.6267 33.04 61.4267 33.04ZM59.0467 28.21V27.78H62.1667V28.21H59.0467Z" fill="white"/>
<path d="M22 23H53.9375" stroke="white"/>
</svg>
